<svg xmlns="http://www.w3.org/2000/svg" viewBox="0 0 85.31 84.96"><defs><style>.cls-1{fill:#3f404c;}.cls-2{fill:#fff;}.cls-3{fill:#00adee;}.cls-4{fill:none;stroke:#3f404c;stroke-miterlimit:10;stroke-width:3.7px;}</style></defs><title>Recurso 1</title><g id="Capa_2" data-name="Capa 2"><g id="Layer_1" data-name="Layer 1"><path class="cls-1" d="M69,39.35c-2.3-1.05-9.08-3.53-20.41-4A65.85,65.85,0,0,0,29.68,37c-5.93,1.11-11.23,3.68-12.23,4.76a1.61,1.61,0,0,0,.31,2.54c4.62-2.59,7.86-4.27,13-5.59,3.63-.93,7.68-2.12,18.4-2.22s17.4,2.36,19.6,3.21c1.46.56,2.89,1.33,3,1.14S70.33,40,69,39.35Z"/><path class="cls-1" d="M34.51,17a1.39,1.39,0,0,0,0-2.4,4.71,4.71,0,0,0-5.67.57c-1.85,1.61-1.68,4-1.18,6s1.61,3.77,1,6.36c-1.09,4.38-3.7,5.12-4.52,4.85S26.6,28,27.33,27.26a59.64,59.64,0,0,1,5.61-4.85c3.22-2.4,5.47-2.9,5.52-3.13S35.27,20,32.53,22a57.63,57.63,0,0,0-4.93,3.87,25,25,0,0,0-4,4.29c-1,1.71-.78,2.78.55,3.77s4.08.78,6.64-2a8,8,0,0,0,2-7.76c-.46-1.81-1.41-3.61-1.51-4.94-.12-1.74,1-3.45,2.63-3.48C35.09,15.69,34.26,16.87,34.51,17Z"/><path class="cls-1" d="M25,17.08a1.69,1.69,0,0,0,.31-2.7C24,13.2,21.57,13,19.51,14.76s-2.16,4.4-1.9,6.68,1.17,4.32.21,7.21c-1.62,4.88-4.33,5.6-5.13,5.26s2.87-4.67,3.69-5.43a73,73,0,0,1,6.34-5.28c3.53-2.55,4.75-2.86,4.83-3.11s-1.6.2-5.21,2.7a61.64,61.64,0,0,0-5.21,4,28,28,0,0,0-4.65,4.67c-1.25,1.87-1.11,3.08.11,4.27s4,1.06,6.92-2a10.33,10.33,0,0,0,2.91-8.65c-.25-2.06-1-4.14-.93-5.64.08-2,1.41-3.84,3.05-3.8C25.71,15.66,24.74,17,25,17.08Z"/><path class="cls-1" d="M19,1.67c2.9.77,2.56,4.47.44,8.62C17,14.41,10.34,30.2,9.85,32.15c-.65,1.63-1.61,4.76-1.95,5.57a1.71,1.71,0,0,1-2.12.8c-.81-.24-.91-.69-.78-2.14-.06-1.47,3-10.23,4.83-14.57S16.55,7.13,17.2,5.72c.54-1.16.36-2.55-.6-2.7s-2.73.58-4,1.27A19.42,19.42,0,0,0,9.07,7.08a15.64,15.64,0,0,0-4.25,6.61c-.52,1.82-.37,2.93,0,3.67.28.5.62,1.32-.46,1.14C2.74,18.23.27,16,.39,12.37s1.78-5.71,5.35-8S14.71.54,19,1.67Z"/><path class="cls-1" d="M47.8,21c-.38-.13.63-1.05.47-2.52-.13-1.14-.72-2.76-3.19-2.4S40,20,38.78,22.77,36.36,30,37.1,30.28s1.82-1.51,2.8-3.47a36.53,36.53,0,0,1,3-5.2c1.56-2,2.24-2.09,3.05-1.9s1.31.42,1.06,1.38-.85,3.12-1.43,5.51-.8,4-.4,4.23,1.62-2,2.57-3.67,3.16-6.05,3.16-6.05l-.35,1.73s-1.59,3.3-2.43,4.9S46,31.53,45.05,31.48A2.44,2.44,0,0,1,42.57,29,21.35,21.35,0,0,1,42.92,25a19.29,19.29,0,0,1,.5-2.52c.13-.4-.45.32-1.19,1.71-.85,1.57-1.8,3.46-2.64,5.12s-1.44,2.35-2.29,2.64-2.51.06-2.89-2.11c-.43-2.5.12-5.08,1.43-8.22s3.58-6,6.49-6.61,5,.25,5.89,1.69C49.43,18.54,48.26,21.16,47.8,21Z"/><path class="cls-1" d="M66.82,18.11S62.9,26.67,62,28.17,60,31.63,59.25,31.42c-.46-.14.62-5.24,1.66-8.36s3.1-8.83,4-11.17c.94-2.49,2.21-5,1.43-6.46s-2-1.26-2.35-1.14.2.45,0,1.64-4.23,10.85-4.23,10.85c-.25-1.18-1.88-2.73-4.8-1.53s-4.15,4.25-5,6.12-1.73,6.05-1.35,8.22A2.75,2.75,0,0,0,53,31.13c1.54-1.49,4.33-6.56,4.33-6.56s-1.18,4.37-.86,6.11,2.95,2.49,4.42.86c1.78-2,4.79-9.13,5.84-10.75A2.18,2.18,0,0,0,66.82,18.11Zm-8.36,2.13a20.1,20.1,0,0,1-2.15,4.27c-1.08,2-3.65,6.68-4.73,6.26s.63-6.42,1.93-9.29,3.57-5.81,4.58-5.31S59.17,18.11,58.46,20.24Z"/><path class="cls-1" d="M70.49,26.64A15.8,15.8,0,0,1,67.63,31c-.78.73-1.8,1.68-2.43,1.36s.11-3.08,1-5.33,2-4.58,2.3-5.39a7.35,7.35,0,0,0,.71-4.27A1.85,1.85,0,0,0,66.68,16c-.33.13.29.3,0,1.49-.13.6-2.29,5.51-3.09,7.52s-1.7,4.85-1.37,6.6c.28,1.48,2.3,2.23,3.86,1.44,1.54-.53,3.6-3.47,3.6-3.47S71.31,24.57,70.49,26.64Z"/><path class="cls-1" d="M79.26,23c-.57-.09-.57.2-.32.45a5.2,5.2,0,0,1,1,2.49,12.44,12.44,0,0,1-.69,6.32c-1.07,3.13-4.12,5.59-5.81,4.27-1.54-1.21-1.2-4.34-1-5.94a32.39,32.39,0,0,1,2-6.53c1.13-3,2.66-5.24,2.14-7.12a1.85,1.85,0,0,0-2.52-1.34c-.33.13.29.3,0,1.49-.13.59-2.13,5.66-2.82,7.44a28.89,28.89,0,0,0-1.49,4.73c-.42,1.94,0,4.64.8,5.79s3.78,3.43,6.89,2.81c3.32-.67,6.52-5.7,6.38-9.76S79.82,23.07,79.26,23Z"/><path class="cls-1" d="M71.13,16.2c-.45-.05-.39-1.24.23-2.75a5.29,5.29,0,0,1,3.85-3.39c1.32-.16,1.64.73,1.63,1.33a1.73,1.73,0,0,1-.6,1.47c-.27.15-.64-.27-1.45,0a5.21,5.21,0,0,0-2.6,2.4C71.57,16.48,71.13,16.2,71.13,16.2Z"/><path class="cls-2" d="M68.81,39.14c-2.3-1-9.08-3.53-20.42-4A65.69,65.69,0,0,0,29.5,36.75c-5.93,1.1-11.23,3.68-12.23,4.76a1.6,1.6,0,0,0,.31,2.54c4.62-2.59,7.86-4.28,13-5.59,3.62-.93,7.68-2.12,18.4-2.22s17.4,2.36,19.6,3.2c1.45.57,2.89,1.34,3,1.15S70.15,39.76,68.81,39.14Z"/><path class="cls-2" d="M34.32,16.78a1.39,1.39,0,0,0,0-2.4,4.72,4.72,0,0,0-5.67.57c-1.85,1.61-1.68,4-1.18,6s1.61,3.77,1,6.36c-1.09,4.37-3.7,5.12-4.52,4.85s2.48-4.36,3.21-5.06a57.87,57.87,0,0,1,5.61-4.86,32.45,32.45,0,0,1,5.52-3.12c.06-.24-3.19.74-5.93,2.7a55,55,0,0,0-4.93,3.88A24.66,24.66,0,0,0,23.46,30c-1,1.7-.78,2.77.55,3.77s4.08.78,6.64-2a8.05,8.05,0,0,0,2-7.76c-.46-1.81-1.41-3.61-1.51-4.95-.12-1.74,1-3.44,2.63-3.48C34.9,15.5,34.07,16.68,34.32,16.78Z"/><path class="cls-2" d="M24.79,16.9a1.71,1.71,0,0,0,.3-2.71c-1.29-1.17-3.71-1.34-5.77.39s-2.17,4.39-1.9,6.67,1.37,4.46.41,7.35c-1.61,4.87-4.53,5.47-5.33,5.12s2.87-4.67,3.69-5.42A69.6,69.6,0,0,1,22.53,23c3.53-2.55,4.75-2.86,4.83-3.12s-1.6.21-5.22,2.7a65.53,65.53,0,0,0-5.21,4,28.34,28.34,0,0,0-4.64,4.67c-1.25,1.87-1.12,3.09.1,4.27s4,1.07,6.93-2a10.35,10.35,0,0,0,2.91-8.66c-.26-2.06-1-4.13-.94-5.64.09-2,1.42-3.83,3.06-3.8C25.52,15.48,24.54,16.77,24.79,16.9Z"/><path class="cls-2" d="M18.8,1.5c2.9.77,2.56,4.47.44,8.61A218,218,0,0,0,9.66,32C9,33.61,8.05,36.74,7.71,37.54a1.69,1.69,0,0,1-2.11.8c-.81-.23-.92-.68-.79-2.13-.06-1.47,3-10.23,4.84-14.57S16.37,7,17,5.55c.54-1.17.35-2.55-.61-2.71s-2.73.59-4,1.28A18.36,18.36,0,0,0,8.88,6.91a15.67,15.67,0,0,0-4.25,6.6c-.51,1.83-.36,2.94,0,3.67.28.51.63,1.32-.46,1.15C2.55,18.06.09,15.81.2,12.2S2,6.49,5.55,4.22,14.53.36,18.8,1.5Z"/><path class="cls-2" d="M47.6,20.81c-.38-.14.64-1,.47-2.52a2.48,2.48,0,0,0-3.18-2.4c-2.58.38-5.06,3.91-6.3,6.69s-2.43,7.21-1.68,7.5,1.82-1.5,2.8-3.47a36.89,36.89,0,0,1,3-5.19c1.55-2,2.23-2.09,3-1.9s1.31.42,1.06,1.38S46,24,45.38,26.41s-.8,4.05-.4,4.22,1.63-2,2.58-3.66,3.16-6,3.16-6l-.36,1.73s-1.58,3.3-2.42,4.9-2.12,3.79-3.09,3.74a2.45,2.45,0,0,1-2.48-2.44,21.25,21.25,0,0,1,.36-4.06,21.79,21.79,0,0,1,.49-2.52c.14-.4-.44.32-1.19,1.71-.85,1.57-1.8,3.45-2.64,5.12S38,31.45,37.11,31.74s-2.52.06-2.89-2.11c-.44-2.5.11-5.08,1.42-8.22s3.59-6,6.49-6.61,5,.25,5.9,1.68C49.23,18.35,48.06,21,47.6,20.81Z"/><path class="cls-2" d="M66.62,17.92S62.71,26.48,61.84,28s-2.05,3.46-2.78,3.25c-.47-.14.61-5.24,1.65-8.36s3.11-8.83,4-11.18,2.22-4.95,1.44-6.45c-.86-1.65-2-1.26-2.35-1.14s.2.45,0,1.63-4.23,10.86-4.23,10.86c-.26-1.18-1.88-2.73-4.81-1.53s-4.15,4.25-5,6.12-1.73,6-1.34,8.22a2.75,2.75,0,0,0,4.43,1.54c1.54-1.49,4.32-6.56,4.32-6.56s-1.18,4.37-.86,6.11,3,2.49,4.43.85c1.77-2,4.78-9.12,5.83-10.74A2.18,2.18,0,0,0,66.62,17.92Zm-8.35,2.13a20.59,20.59,0,0,1-2.15,4.27c-1.09,2-3.66,6.67-4.74,6.26s.64-6.42,1.93-9.29,3.58-5.81,4.58-5.31S59,17.92,58.27,20.05Z"/><path class="cls-2" d="M70.29,26.45a15.8,15.8,0,0,1-2.86,4.32c-.77.73-1.8,1.67-2.42,1.36s.1-3.08,1-5.33,2-4.58,2.29-5.39A7.27,7.27,0,0,0,69,17.14a1.85,1.85,0,0,0-2.52-1.35c-.32.13.29.3,0,1.49-.13.6-2.28,5.51-3.08,7.51s-1.7,4.86-1.37,6.61c.28,1.48,2.3,2.23,3.85,1.43,1.55-.53,3.61-3.46,3.61-3.46S71.11,24.38,70.29,26.45Z"/><path class="cls-2" d="M79.06,22.78c-.56-.1-.57.2-.31.45a5.12,5.12,0,0,1,1,2.48A12.25,12.25,0,0,1,79,32c-1.06,3.13-4.12,5.59-5.8,4.27s-1.21-4.34-1-6a32.58,32.58,0,0,1,2-6.52c1.12-3,2.66-5.24,2.13-7.12a1.85,1.85,0,0,0-2.52-1.34c-.32.12.29.3,0,1.49-.13.59-2.13,5.66-2.81,7.44A28,28,0,0,0,69.58,29c-.42,1.94,0,4.64.79,5.79s3.78,3.43,6.89,2.81c3.46-.69,6.53-5.7,6.39-9.76S79.63,22.87,79.06,22.78Z"/><path class="cls-2" d="M70.94,16c-.45,0-.39-1.23.22-2.74A5.29,5.29,0,0,1,75,9.87c1.32-.16,1.64.73,1.63,1.33a1.76,1.76,0,0,1-.6,1.47c-.28.15-.65-.27-1.45,0a5.21,5.21,0,0,0-2.6,2.4C71.38,16.29,70.94,16,70.94,16Z"/><path class="cls-1" d="M68.65,39c-2.29-1-9.08-3.53-20.41-4a65.85,65.85,0,0,0-18.9,1.57c-5.93,1.11-11.23,3.69-12.23,4.77a1.6,1.6,0,0,0,.31,2.53c4.62-2.59,7.86-4.27,13-5.59,3.63-.93,7.68-2.12,18.4-2.22s17.4,2.36,19.6,3.21c1.46.56,2.89,1.33,3,1.14S70,39.61,68.65,39Z"/><path class="cls-1" d="M34.16,16.65a1.4,1.4,0,0,0,0-2.4,4,4,0,0,0-5.2.45c-1.85,1.61-1.68,4-1.18,6s1.73,4,1.08,6.59c-1.09,4.38-4.17,5.28-5,4.85S26.25,27.65,27,27a57.87,57.87,0,0,1,5.61-4.86A33.48,33.48,0,0,1,38.11,19c.06-.24-3.19.75-5.93,2.71a55,55,0,0,0-4.93,3.88,23.93,23.93,0,0,0-3.95,4.29c-1,1.7-.78,2.77.55,3.76s4.08.79,6.64-2a8.06,8.06,0,0,0,2-7.76C32,22,31,20.2,31,18.87c-.12-1.74,1-3.44,2.63-3.48C34.74,15.37,33.91,16.55,34.16,16.65Z"/><path class="cls-1" d="M24.62,16.77a1.7,1.7,0,0,0,.31-2.71c-1.29-1.17-3.47-1.22-5.53.51s-2,4.35-1.64,6.62c.42,2.56,1.35,4.69.43,7.73-1.49,4.91-5,5.32-5.85,4.67-.69-.51,2.87-4.67,3.69-5.42a70.46,70.46,0,0,1,6.33-5.28c3.53-2.55,4.75-2.86,4.84-3.12S25.59,20,22,22.47a63.53,63.53,0,0,0-5.21,4,28.35,28.35,0,0,0-4.65,4.67C10.87,33,11,34.22,12.23,35.4s4,1.07,6.92-2a10.35,10.35,0,0,0,2.91-8.66c-.25-2.06-1-4.13-.93-5.64.09-2,1.41-3.83,3.06-3.8C25.36,15.35,24.38,16.64,24.62,16.77Z"/><path class="cls-1" d="M47.44,20.67c-.38-.13.63-1,.47-2.52-.13-1.14-.72-2.76-3.19-2.39s-5.06,3.91-6.3,6.68S36,29.65,36.74,30s1.83-1.51,2.8-3.47a36.53,36.53,0,0,1,3-5.2c1.56-2,2.24-2.08,3.05-1.89s1.31.41,1.06,1.37-.85,3.13-1.43,5.51-.8,4.06-.4,4.23,1.62-2,2.57-3.67,3.16-6,3.16-6l-.35,1.72s-1.58,3.31-2.43,4.9-2.11,3.79-3.08,3.75a2.46,2.46,0,0,1-2.48-2.45,21.35,21.35,0,0,1,.35-4.06,19.67,19.67,0,0,1,.5-2.52c.13-.39-.45.33-1.19,1.71C41,25.42,40.07,27.3,39.23,29S37.79,31.31,37,31.6s-2.52.06-2.9-2.1c-.43-2.51.12-5.08,1.43-8.23s3.58-5.95,6.49-6.6,5,.24,5.89,1.68C49.07,18.22,47.9,20.83,47.44,20.67Z"/><path class="cls-1" d="M66.46,17.78s-3.92,8.56-4.78,10.06-2.06,3.47-2.79,3.25c-.46-.14.62-5.24,1.66-8.36s3.11-8.82,4-11.17S66.75,6.6,66,5.1s-2-1.26-2.35-1.13.2.45,0,1.63-4.23,10.86-4.23,10.86c-.25-1.19-1.88-2.73-4.8-1.54s-4.15,4.26-5,6.13a18.26,18.26,0,0,0-1.35,8.22,2.75,2.75,0,0,0,4.43,1.53C54.16,29.31,57,24.24,57,24.24s-1.18,4.38-.86,6.12,2.95,2.49,4.42.85c1.78-2,4.79-9.12,5.84-10.75A2.19,2.19,0,0,0,66.46,17.78ZM58.1,19.91A19.93,19.93,0,0,1,56,24.19c-1.08,2-3.65,6.67-4.73,6.26s.63-6.43,1.93-9.3,3.57-5.81,4.58-5.31S58.81,17.78,58.1,19.91Z"/><path class="cls-1" d="M70.13,26.31a15.87,15.87,0,0,1-2.86,4.33c-.77.73-1.8,1.67-2.43,1.35s.11-3.08,1-5.33,2-4.58,2.3-5.39A7.33,7.33,0,0,0,68.84,17a1.85,1.85,0,0,0-2.52-1.34c-.33.12.29.3,0,1.49-.13.59-2.29,5.5-3.09,7.51s-1.7,4.85-1.37,6.6c.28,1.48,2.3,2.24,3.86,1.44,1.54-.53,3.6-3.46,3.6-3.46S71,24.25,70.13,26.31Z"/><path class="cls-1" d="M78.9,22.64c-.57-.09-.57.2-.32.45a5.09,5.09,0,0,1,1,2.49,12.44,12.44,0,0,1-.69,6.32c-1.07,3.13-4.12,5.6-5.81,4.28-1.54-1.22-1.2-4.34-1-5.95a32.78,32.78,0,0,1,2-6.53c1.13-3,2.66-5.24,2.14-7.11a1.85,1.85,0,0,0-2.52-1.35c-.33.13.29.3,0,1.49-.13.6-2.13,5.67-2.82,7.45a29.08,29.08,0,0,0-1.49,4.72,11.28,11.28,0,0,0,.86,5.86c.63,1.53,2.82,3.56,6.83,2.74,3.31-.67,6.52-5.69,6.38-9.75S79.46,22.74,78.9,22.64Z"/><path class="cls-1" d="M70.77,15.87c-.44,0-.39-1.23.23-2.75a5.31,5.31,0,0,1,3.85-3.39,1.28,1.28,0,0,1,1.63,1.34,1.73,1.73,0,0,1-.6,1.46c-.27.15-.64-.27-1.45,0a5.26,5.26,0,0,0-2.6,2.4C71.21,16.16,70.77,15.87,70.77,15.87Z"/><path class="cls-1" d="M18.6,1.33c2.9.78,2.56,4.47.44,8.62A218,218,0,0,0,9.46,31.81c-.65,1.63-1.61,4.76-2,5.57a1.7,1.7,0,0,1-2.11.8c-.81-.24-.92-.69-.79-2.14-.06-1.47,3-10.22,4.84-14.57S16.17,6.79,16.82,5.38c.53-1.16.35-2.55-.61-2.7s-2.73.58-4,1.27A19.16,19.16,0,0,0,8.68,6.74a15.75,15.75,0,0,0-4.25,6.61,4.83,4.83,0,0,0,0,3.67c.28.5.63,1.32-.46,1.14C2.35,17.89-.11,15.65,0,12s1.79-5.71,5.35-8S14.33.2,18.6,1.33Z"/><path class="cls-2" d="M39.92,16.21A11.5,11.5,0,0,0,36.51,21a20.28,20.28,0,0,0-1.86,6.59c0,.15.21.15.23,0a21.65,21.65,0,0,1,1.81-6.49A11.4,11.4,0,0,1,40,16.34c.07-.06,0-.18-.08-.13Z"/><path class="cls-2" d="M53.7,15.94a10.8,10.8,0,0,0-3.28,4.57,20.23,20.23,0,0,0-1.73,6.37c0,.15.22.15.24,0a21.25,21.25,0,0,1,1.67-6.26,10.76,10.76,0,0,1,3.17-4.55c.08-.06,0-.18-.07-.13Z"/><path class="cls-2" d="M17.51,6.18a151.48,151.48,0,0,0-9.37,22c-.74,2.15-1.48,4.3-2.07,6.49a.1.1,0,0,0,.19.05c.62-1.88,1.17-3.78,1.8-5.66s1.31-3.79,2-5.66q2.12-5.62,4.61-11.08c.94-2,1.92-4.06,2.91-6.08,0-.05-.05-.1-.08-.05Z"/><path class="cls-2" d="M65,7.46A121,121,0,0,0,59.2,24c-.47,1.74-.9,3.49-1.27,5.25,0,.15.19.21.22.06a117.32,117.32,0,0,1,5.24-17.4c.57-1.49,1.16-3,1.74-4.43,0-.06-.07-.09-.09,0Z"/><path class="cls-2" d="M67,18.15c-.83,1.79-1.69,3.56-2.44,5.38a20.11,20.11,0,0,0-1.68,5.95c0,.13.19.13.2,0a20.07,20.07,0,0,1,1.67-6c.73-1.8,1.58-3.54,2.34-5.33,0-.05-.07-.09-.09,0Z"/><path class="cls-2" d="M74.46,17.58c-1.57,3.52-3.29,7.08-4,10.89a14.29,14.29,0,0,0-.28,3.06c0,.13.21.13.2,0a20.14,20.14,0,0,1,1.48-7.29c.8-2.25,1.81-4.41,2.72-6.62,0-.05-.07-.09-.09,0Z"/><path class="cls-2" d="M3.47,17.12a5.91,5.91,0,0,1-2.12-3.48A6.32,6.32,0,0,1,1.56,10c.82-2.27,2.82-3.87,5-5.36.08,0,0-.18-.13-.12-3.78,2.05-6.56,5.8-5,9.87a5.2,5.2,0,0,0,2.06,2.79c.06,0,.11,0,.05-.06Z"/><path class="cls-2" d="M79.5,23.62a7.85,7.85,0,0,1,.88,5.29,11.83,11.83,0,0,1-2.46,5.81c-.06.07,0,.18.11.11a12,12,0,0,0,2.51-6.07,8.78,8.78,0,0,0-.15-3.19,4.85,4.85,0,0,0-.84-2s-.07,0,0,0Z"/><path class="cls-2" d="M20,14.91c-2.7,2.54-1.55,6.7-.78,9.82a.1.1,0,0,0,.2-.05c-.72-3.15-1.91-7,.63-9.71,0,0,0-.09-.05-.06Z"/><path class="cls-2" d="M29.34,15.2a3.69,3.69,0,0,0-1.21,3.3,23.14,23.14,0,0,0,1.27,5.3c0,.12.24.07.2-.06a26.25,26.25,0,0,1-1.27-4.93,4,4,0,0,1,1.06-3.55s0-.09-.05-.06Z"/><path class="cls-2" d="M70.88,14.56c.21-.45.38-.92.62-1.37A8.49,8.49,0,0,1,72.32,12a5.29,5.29,0,0,1,2.1-1.61s0-.11,0-.09a5,5,0,0,0-2.13,1.6,7.6,7.6,0,0,0-.81,1.22,6.67,6.67,0,0,0-.62,1.46s0,.05,0,0Z"/><path class="cls-3" d="M67.85,12.6a.35.35,0,0,1,.4.17.28.28,0,0,1-.23.36.34.34,0,0,1-.32-.25A.29.29,0,0,1,67.85,12.6Z"/><path class="cls-3" d="M51.23,14.09a.47.47,0,0,0,.06.31.3.3,0,0,0,.19.14.37.37,0,0,0,.4-.46A.36.36,0,0,0,51.3,14,.58.58,0,0,0,51.23,14.09Z"/><path class="cls-3" d="M15.81,23.27a.56.56,0,0,0,.06.31.33.33,0,0,0,.19.14.37.37,0,0,0,.4-.46.36.36,0,0,0-.58-.13A.58.58,0,0,0,15.81,23.27Z"/><path class="cls-3" d="M3.42,34.12a.33.33,0,0,0,0,.34.28.28,0,0,0,.28.1.54.54,0,0,0,.25-.16A.4.4,0,0,0,4,34.25.25.25,0,0,0,3.75,34,.34.34,0,0,0,3.42,34.12Z"/><path class="cls-3" d="M9.28,16.82a.33.33,0,0,0,.13.53.38.38,0,0,0,.45-.48.34.34,0,0,0-.23-.2A.35.35,0,0,0,9.28,16.82Z"/><path class="cls-3" d="M55.49,20.93a.29.29,0,0,0,.48-.15.25.25,0,0,0-.31-.28C55.49,20.55,55.29,20.73,55.49,20.93Z"/><path class="cls-3" d="M3.07,37a.42.42,0,0,0,.34-.24c.08-.16,0-.41-.12-.45a.39.39,0,0,0-.45.23A.33.33,0,0,0,3.07,37Z"/><path class="cls-3" d="M.46,6.22c.13,0,.22-.14.29-.28a.31.31,0,0,0-.06-.29.26.26,0,0,0-.31,0,.42.42,0,0,0-.18.39C.25,6.21.35,6.22.46,6.22Z"/><path class="cls-3" d="M21.81,36.85a.27.27,0,0,0,.11.34.46.46,0,0,0,.47-.16.37.37,0,0,0,0-.38c0-.11-.2-.14-.34-.09A.42.42,0,0,0,21.81,36.85Z"/><path class="cls-3" d="M33.45,31.32a.32.32,0,0,0,0,.43.33.33,0,0,0,.45,0,.3.3,0,0,0,0-.38.32.32,0,0,0-.31-.11.18.18,0,0,0-.14.24"/><path class="cls-3" d="M53.35,32.3a.32.32,0,0,0,0,.42.31.31,0,0,0,.44,0,.28.28,0,0,0,0-.37.35.35,0,0,0-.31-.12c-.11,0-.2.15-.15.25"/><path class="cls-3" d="M84.72,27.43a.62.62,0,0,0-.09.47.26.26,0,0,0,.32.21.39.39,0,0,0,.29-.2.61.61,0,0,0,0-.48.26.26,0,0,0-.26-.18A.34.34,0,0,0,84.72,27.43Z"/><path class="cls-3" d="M74.68,41.14a.33.33,0,0,0,.13.4.39.39,0,0,0,.35,0,.52.52,0,0,0,.11-.25.19.19,0,0,0-.09-.23A.43.43,0,0,0,74.68,41.14Z"/><path class="cls-3" d="M78.1,27.65a.34.34,0,0,0-.1.26.29.29,0,0,0,.15.25.42.42,0,0,0,.27,0,.25.25,0,0,0,.18-.2c0-.18-.21-.31-.27-.34A.23.23,0,0,0,78.1,27.65Z"/><path class="cls-3" d="M72.78,41.46a.3.3,0,0,0,0,.23.17.17,0,0,0,.17.1.34.34,0,0,0,.32-.21.25.25,0,0,0-.18-.34A.29.29,0,0,0,72.78,41.46Z"/><path class="cls-3" d="M5.34,14a.31.31,0,0,0,.2.27.31.31,0,0,0,.19,0A.45.45,0,0,0,6,13.68a.31.31,0,0,0-.43-.18A.53.53,0,0,0,5.34,14Z"/><path class="cls-3" d="M25.59,41.43a.33.33,0,0,0-.09.41c.07.12.2.13.38.08a.47.47,0,0,0,.26-.24c.08-.14.13-.33,0-.39A.58.58,0,0,0,25.59,41.43Z"/><path class="cls-3" d="M27.67,35.86a.27.27,0,0,0-.07.34.34.34,0,0,0,.37.1.39.39,0,0,0,.24-.19.26.26,0,0,0,0-.35.31.31,0,0,0-.28,0A.65.65,0,0,0,27.67,35.86Z"/><path class="cls-3" d="M23.24,10.42a.28.28,0,0,0-.06.35.31.31,0,0,0,.37.09.41.41,0,0,0,.24-.19.26.26,0,0,0,0-.35.28.28,0,0,0-.27,0A.68.68,0,0,0,23.24,10.42Z"/><path class="cls-3" d="M72.35,39.2c.1.07.13.14.12.21a.3.3,0,0,1-.36.22.2.2,0,0,1-.06-.3C72.1,39.22,72.26,39.13,72.35,39.2Z"/><path class="cls-3" d="M68.48,40.46a45.94,45.94,0,0,0-6.26-1.4c-1-.15-3.59-.47-6.22-.62-2.38-.14-4.78-.12-6.14-.06-1.82.08-5.24.18-5.25.65s.75.39,3.08.21c1.13-.09,3.15-.26,6-.27a52.17,52.17,0,0,1,5.79.21,52.12,52.12,0,0,1,9,1.34C68.53,40.53,68.54,40.48,68.48,40.46Z"/><path class="cls-3" d="M64.83,38.87a53.11,53.11,0,0,0-9.51-1.69A72.81,72.81,0,0,0,45.83,37a68.09,68.09,0,0,0-9.25,1.1c-2.72.5-7.73,1.64-7.58,2.23s1.21.24,4.58-.62a74.21,74.21,0,0,1,8.87-1.67,59.6,59.6,0,0,1,8.74-.54c8.47.17,11,.87,13.63,1.4C64.91,39,64.91,38.9,64.83,38.87Z"/><path class="cls-3" d="M53.41,35a44.74,44.74,0,0,0-5.88-.87c-.92-.08-3.35-.22-5.79-.21-2.22,0-4.43.15-5.69.28-1.68.17-4.84.44-4.82.84s.72.3,2.86,0c1-.14,2.91-.39,5.54-.56,2.06-.13,3.44-.18,5.38-.13a51.7,51.7,0,0,1,8.34.68C53.41,35,53.47,35,53.41,35Z"/><path class="cls-3" d="M8.81,20.87c-.31.57-.63,1.35-1.28,2.89-1.15,2.71-2.17,5.77-2.53,7-.2.64-.39,1.61-.75,1.53S4,31.79,4.1,31.5c.12-.45.29-1,.43-1.42s.69-2,1.4-3.79A35.17,35.17,0,0,1,8.6,20.74C8.88,20.29,9.09,20.35,8.81,20.87Z"/><path class="cls-3" d="M64.24,16.07c-.24.54-.49,1.26-1,2.69-.91,2.52-1.71,5.34-2,6.42-.16.59-.31,1.46-.59,1.44s-.18-.38-.12-.64c.09-.41.23-.9.34-1.3s.54-1.88,1.1-3.5a39.31,39.31,0,0,1,2.1-5.2C64.3,15.55,64.47,15.57,64.24,16.07Z"/><path class="cls-3" d="M42.38,13.52c0,.38.74.32,1.56.36a5.72,5.72,0,0,1,3.81,1.32c1,1.05,1.16,2.31,1.36,2.23s-.28-1.35-.8-2.09a4.93,4.93,0,0,0-2.49-1.86C45.11,13.21,42.3,12.69,42.38,13.52Z"/><path class="cls-3" d="M18.35,36.26a6.39,6.39,0,0,1-2.74,1.11h0a5.55,5.55,0,0,1-2.84-.45,3,3,0,0,1-1.12-.77s-.09-.12-.06-.17.11,0,.15,0a2.83,2.83,0,0,0,1,.62A6.38,6.38,0,0,0,14,37a4.84,4.84,0,0,0,3-.65,11.33,11.33,0,0,0,1.65-1.23c.32-.29.52-.36.7-.19.34.31-.4.85-.6,1A4.49,4.49,0,0,1,18.35,36.26Z"/><path class="cls-3" d="M39.89,30.68a4.35,4.35,0,0,1-1.39,1.41h0a4.07,4.07,0,0,1-1.91.55,2.2,2.2,0,0,1-.92-.11s-.1,0-.09-.08.07,0,.1,0a2.15,2.15,0,0,0,.84.05,4.65,4.65,0,0,0,.9-.19,3.46,3.46,0,0,0,1.7-1.22,6.82,6.82,0,0,0,.66-1.17c.12-.25.22-.35.39-.31s0,.6-.07.75A3.25,3.25,0,0,1,39.89,30.68Z"/><path class="cls-3" d="M61.17,32.47a3.68,3.68,0,0,1-1.55.63h0a3.8,3.8,0,0,1-1.73-.17,1.87,1.87,0,0,1-.73-.37s-.07-.05-.05-.08.07,0,.09,0a2,2,0,0,0,.67.29,4.45,4.45,0,0,0,.8.13,3,3,0,0,0,1.76-.4,5.22,5.22,0,0,0,.9-.67c.16-.15.28-.19.4-.11s-.17.45-.28.54A2.58,2.58,0,0,1,61.17,32.47Z"/><path class="cls-3" d="M29.52,13a5.45,5.45,0,0,0-2,1.71l0,0a4.54,4.54,0,0,0-.74,2.39,6.16,6.16,0,0,0,.08,1.18s.05.12.1.12.05-.08,0-.12a5.38,5.38,0,0,1,.26-2.21A4.27,4.27,0,0,1,29,14a9.64,9.64,0,0,1,1.66-.8c.35-.14.49-.27.43-.47-.12-.39-.85,0-1.07.06A4.87,4.87,0,0,0,29.52,13Z"/><path class="cls-3" d="M71.81,10a5.89,5.89,0,0,0-1.41,2v0a7.33,7.33,0,0,0-.49,2.65c0,.42.14.48.17.09a7.38,7.38,0,0,1,.16-1.24,5.19,5.19,0,0,1,1.2-2.44,7.51,7.51,0,0,1,1.18-1c.25-.18.35-.33.3-.55-.09-.41-.61.05-.77.17S71.94,9.84,71.81,10Z"/><path class="cls-3" d="M78.42,31.28A6.29,6.29,0,0,1,77.32,34l0,0A5.42,5.42,0,0,1,75,35.78a2.92,2.92,0,0,1-1.33.28s-.15,0-.16-.07.07-.09.12-.09a3,3,0,0,0,1.25-.31A6.6,6.6,0,0,0,76,34.88a4.91,4.91,0,0,0,1.64-2.63,10.62,10.62,0,0,0,.25-2c0-.43,0-.63.28-.64.46,0,.34.87.32,1.14A3.77,3.77,0,0,1,78.42,31.28Z"/><path class="cls-3" d="M22.14,6.35A5.49,5.49,0,0,0,22,3.68v0A4.79,4.79,0,0,0,20.54,1.5,2.64,2.64,0,0,0,19.49.87s-.13,0-.16,0,0,.09.08.1a2.59,2.59,0,0,1,.91.62,5.63,5.63,0,0,1,.75.94,4.41,4.41,0,0,1,.62,2.72,9.17,9.17,0,0,1-.38,1.82c-.11.37-.09.56.12.65.38.16.54-.65.61-.88S22.11,6.55,22.14,6.35Z"/><path class="cls-3" d="M14.37,3.86a15.63,15.63,0,0,0-2.94,1.87A23.44,23.44,0,0,0,9.1,8a17.76,17.76,0,0,0-1.88,2.47c-.48.78-1.41,2.22-1.06,2.45s.53-.11,1.08-1.15A21.39,21.39,0,0,1,8.82,9.16,15.34,15.34,0,0,1,10.7,6.9a17.28,17.28,0,0,1,3.68-3S14.4,3.85,14.37,3.86Z"/><path class="cls-3" d="M15.65,0a22.65,22.65,0,0,0-4.48.33,27.33,27.33,0,0,0-3.86,1A19.9,19.9,0,0,0,3.93,2.89C3,3.43,1.22,4.39,1.58,4.81s.71.17,1.83-.59A22.72,22.72,0,0,1,6.46,2.44,18,18,0,0,1,9.77,1.15,22.4,22.4,0,0,1,15.65.08S15.69,0,15.65,0Z"/><path class="cls-3" d="M77.7,38.55a8.7,8.7,0,0,0,2.84-1.18,10.91,10.91,0,0,0,3.19-3.24,9.84,9.84,0,0,0,1.44-3.58c.1-.87-.5-1.13-.74-.06a11.06,11.06,0,0,1-1.06,3.2A8.8,8.8,0,0,1,81,36.6a7.82,7.82,0,0,1-3.45,1.76C77.23,38.48,77.28,38.65,77.7,38.55Z"/><line class="cls-4" x1="21.5" y1="62.57" x2="57.45" y2="62.57"/><line class="cls-4" x1="21.5" y1="72.84" x2="57.45" y2="72.84"/><line class="cls-4" x1="21.5" y1="83.11" x2="57.45" y2="83.11"/></g></g></svg>