<?xml version="1.0" encoding="utf-8"?>
<!-- Generator: Adobe Illustrator 16.0.0, SVG Export Plug-In . SVG Version: 6.00 Build 0)  -->
<!DOCTYPE svg PUBLIC "-//W3C//DTD SVG 1.1//EN" "http://www.w3.org/Graphics/SVG/1.1/DTD/svg11.dtd">
<svg version="1.1" id="Layer_1" xmlns="http://www.w3.org/2000/svg" xmlns:xlink="http://www.w3.org/1999/xlink" x="0px" y="0px"
	 width="389px" height="218.5px" viewBox="0 0 389 218.5" enable-background="new 0 0 389 218.5" xml:space="preserve">
<g>
	<path fill="#8B706D" d="M122.736,214.277c0.391,0.011,0.816-0.012,1.276-0.068c0.46-0.056,0.869-0.18,1.225-0.369
		c0.356-0.19,0.534-0.465,0.534-0.823c0-0.337-0.123-0.604-0.369-0.803c-0.247-0.198-0.545-0.347-0.896-0.445
		c-0.351-0.1-0.866-0.219-1.545-0.357c-1.017-0.214-1.852-0.573-2.505-1.076c-0.653-0.503-0.979-1.233-0.979-2.191
		c0-0.145,0.013-0.324,0.04-0.538c0.064-0.567,0.268-1.065,0.61-1.493c0.342-0.429,0.827-0.761,1.453-0.996
		c0.626-0.235,1.381-0.354,2.264-0.354c0.514,0,1.103,0.077,1.766,0.229s1.306,0.362,1.927,0.63l-0.217,1.807
		c-0.707-0.268-1.369-0.47-1.987-0.606c-0.618-0.136-1.139-0.204-1.562-0.204c-0.621,0-1.097,0.113-1.429,0.341
		s-0.498,0.523-0.498,0.888c0,0.289,0.087,0.521,0.261,0.694s0.403,0.312,0.687,0.413s0.698,0.22,1.244,0.354
		c0.386,0.097,0.653,0.166,0.803,0.209c0.696,0.203,1.26,0.401,1.694,0.594s0.819,0.507,1.156,0.943s0.506,1.023,0.506,1.763
		c0,0.701-0.186,1.31-0.558,1.826s-0.911,0.913-1.618,1.188s-1.55,0.413-2.529,0.413c-0.53,0-1.032-0.048-1.505-0.145
		c-0.474-0.096-0.879-0.206-1.216-0.329c-0.337-0.123-0.712-0.272-1.124-0.449l-0.417-0.177l0.217-1.871
		C120.793,213.83,121.891,214.165,122.736,214.277z"/>
	<path fill="#8B706D" d="M155.345,204.972l-4.167,11.048h-2.088l-1.702-4.472l-0.297-0.988h-0.032l-0.136,1.012l-1.686,4.448h-2.087
		l-3.661-9.506l-0.755-1.542h2.561l2.682,7.098l0.225,1.067h0.032l0.233-1.075l1.542-3.967l-1.212-3.123h2.441l2.674,7.09
		l0.225,1.075h0.032l0.225-1.075l2.658-7.09H155.345z"/>
	<path fill="#8B706D" d="M169.953,204.972v11.048h-2.345v-9.193l-0.161-1.854H169.953z"/>
	<path fill="#8B706D" d="M185.668,204.972l3.404,7.202h0.032l0.145-0.498l3.26-6.704h2.368l0.354,11.048h-2.304l-0.233-7.298h-0.056
		l-0.266,0.851l-2.528,5.7h-1.534l-2.513-5.716l-0.257-0.875h-0.04l-0.152,7.338h-2.385l0.337-9.595l-0.128-1.453H185.668z"/>
	<path fill="#8B706D" d="M223.567,204.972L219.4,216.02h-2.087l-1.702-4.472l-0.297-0.988h-0.032l-0.137,1.012l-1.687,4.448h-2.087
		l-3.661-9.506l-0.755-1.542h2.562l2.682,7.098l0.225,1.067h0.032l0.232-1.075l1.542-3.967l-1.213-3.123h2.441l2.673,7.09
		l0.226,1.075h0.031l0.226-1.075l2.657-7.09H223.567z"/>
	<path fill="#8B706D" d="M243.338,206.826h-5.154v2.738h4.207l-0.185,1.854h-4.022v2.746h5.46v1.854h-7.812v-9.193l-0.16-1.854
		h7.844L243.338,206.826z"/>
	<path fill="#8B706D" d="M254.734,216.027l4.255-11.056h2.096l3.669,9.354l0.884,1.702h-2.594l-0.65-1.653l-4.279,0.016
		l-0.137-0.723l-0.907,2.36H254.734z M260.29,208.938l-0.232-1.076h-0.024l-0.232,1.076l-1.333,3.444l3.18-0.009L260.29,208.938z"/>
	<path fill="#8B706D" d="M277.852,206.826l-0.152-1.854h4.633c1.29,0,2.283,0.263,2.979,0.787c0.696,0.524,1.044,1.362,1.044,2.513
		c0,0.958-0.214,1.74-0.643,2.345c-0.428,0.604-1.046,1.012-1.854,1.221c0.268,0.609,0.503,1.088,0.706,1.433
		c0.204,0.346,0.43,0.611,0.679,0.799s0.545,0.281,0.888,0.281c0.139,0,0.287-0.022,0.445-0.068
		c0.158-0.045,0.293-0.103,0.405-0.173l0.578,1.164c-0.278,0.269-0.613,0.494-1.004,0.679s-0.757,0.277-1.1,0.277
		c-0.696,0-1.262-0.161-1.698-0.482c-0.437-0.32-0.78-0.729-1.031-1.224c-0.252-0.495-0.541-1.189-0.867-2.084l-0.161-0.434
		l-1.493-0.008v4.022h-2.353V206.826z M281.585,210.15c0.552,0,1-0.043,1.345-0.128c0.346-0.086,0.61-0.248,0.795-0.486
		s0.277-0.576,0.277-1.016c0-0.438-0.091-0.781-0.273-1.027c-0.182-0.246-0.446-0.419-0.794-0.518
		c-0.349-0.1-0.798-0.149-1.35-0.149h-1.381v3.324H281.585z"/>
</g>
<path fill="#8B706D" d="M311.744,180.471c-10.281-4.697-40.617-15.787-91.336-17.759c-47.714-1.857-66.983,3.757-84.545,7.04
	c-26.506,4.953-50.228,16.482-54.687,21.312c-4.46,4.826-1.414,9.247,1.369,11.354c20.672-11.583,35.179-19.131,58.122-25.016
	c16.219-4.16,34.348-9.491,82.317-9.937c47.968-0.447,77.841,10.562,87.671,14.35c6.519,2.513,12.937,5.972,13.206,5.125
	C324.178,185.945,317.749,183.213,311.744,180.471"/>
<path fill="#8B706D" d="M157.492,80.369c1.1,0.448,6.402-6.294,0.093-10.741c-6.261-4.414-17.074-4.649-25.355,2.549
	c-8.28,7.198-7.534,17.741-5.301,26.723c2.232,8.983,7.186,16.875,4.297,28.467c-4.875,19.556-16.535,22.893-20.223,21.687
	c-3.689-1.207,11.109-19.492,14.378-22.628c2.512-2.412,12.914-12.704,25.076-21.732c14.416-10.7,24.46-12.963,24.707-13.975
	c0.26-1.076-14.265,3.323-26.517,12.117c-11.341,8.141-19.553,14.888-22.078,17.326c-3.857,3.723-13.01,11.576-17.666,19.194
	c-4.655,7.617-3.472,12.398,2.475,16.854c5.944,4.458,18.238,3.5,29.699-9.073c8.581-9.416,12.286-21.217,8.825-34.719
	c-2.075-8.096-6.343-16.151-6.755-22.109c-0.542-7.8,4.451-15.422,11.739-15.569C160.07,74.634,156.356,79.907,157.492,80.369"/>
<path fill="#8B706D" d="M114.849,80.869c1.055,0.554,7.192-6.802,1.372-12.097c-5.778-5.255-16.632-6.008-25.823,1.728
	c-9.192,7.736-9.694,19.648-8.518,29.868c1.178,10.22,5.224,19.333,0.937,32.263c-7.234,21.812-19.368,25.046-22.937,23.521
	c-3.567-1.526,12.847-20.899,16.509-24.284c2.816-2.604,15.042-14,28.356-23.623c15.783-11.407,21.249-12.789,21.615-13.917
	c0.391-1.202-7.168,0.897-23.334,12.074c-12.475,8.624-21.451,16.182-23.308,17.85c-4.389,3.936-15.204,12.506-20.797,20.879
	c-5.592,8.372-4.971,13.812,0.484,19.1c5.454,5.289,17.94,4.766,30.971-8.882c9.756-10.221,14.891-23.348,13.015-38.718
	c-1.125-9.213-4.461-18.482-4.167-25.212c0.384-8.812,6.316-17.173,13.668-17.01C118.127,74.524,113.762,80.296,114.849,80.869"/>
<path fill="#8B706D" d="M88.042,11.937c12.98,3.453,11.457,19.989,1.96,38.54c-10.677,18.461-40.664,89.071-42.854,97.798
	c-2.886,7.304-7.203,21.317-8.706,24.91c-1.562,3.59-5.78,4.643-9.471,3.571c-3.626-1.053-4.088-3.05-3.5-9.551
	c-0.279-6.564,13.235-45.746,21.613-65.172c8.376-19.424,30.063-65.669,32.982-71.993c2.4-5.197,1.579-11.404-2.718-12.093
	c-4.291-0.688-12.216,2.625-17.776,5.7c-5.56,3.077-11.488,8.262-15.896,12.492c-12.503,12-17.165,23.6-19.031,29.539
	c-2.29,8.162-1.617,13.129,0.198,16.432c1.234,2.243,2.779,5.906-2.076,5.111C15.36,86.01,4.328,75.981,4.846,59.802
	c0.648-16.105,7.98-25.552,23.924-35.678C44.696,14.01,68.917,6.852,88.042,11.937"/>
<path fill="#8B706D" d="M216.918,98.384c-1.688-0.583,2.855-4.666,2.105-11.255c-0.58-5.104-3.215-12.352-14.24-10.734
	c-11.521,1.692-22.645,17.506-28.186,29.923c-5.543,12.417-10.851,32.241-7.52,33.577c3.331,1.335,8.157-6.747,12.527-15.522
	c5.135-10.315,9.969-18.738,13.416-23.252c6.968-9.126,10.007-9.336,13.627-8.482c3.622,0.852,5.862,1.872,4.748,6.168
	c-1.111,4.295-3.782,13.957-6.397,24.643c-2.614,10.686-3.581,18.138-1.786,18.907c1.794,0.769,7.269-8.817,11.509-16.4
	c4.239-7.582,14.137-27.05,14.137-27.05l-1.577,7.725c0,0-7.087,14.773-10.849,21.921c-3.762,7.146-9.477,16.951-13.813,16.751
	c-4.339-0.2-10.901-2.854-11.082-10.941c-0.17-7.643,0.791-13.011,1.589-18.165s1.604-9.503,2.203-11.269
	c0.598-1.767-1.98,1.439-5.329,7.638c-3.802,7.044-8.04,15.474-11.798,22.924c-3.558,7.057-6.446,10.495-10.215,11.796
	c-3.733,1.291-11.269,0.268-12.945-9.418c-1.938-11.196,0.519-22.724,6.375-36.792c5.855-14.07,16.048-26.634,29.045-29.548
	c12.996-2.912,22.215,1.091,26.367,7.521C224.226,87.407,218.981,99.098,216.918,98.384"/>
<path fill="#8B706D" d="M302.018,85.472c0,0-17.515,38.292-21.38,44.993c-3.868,6.702-9.211,15.511-12.462,14.543
	c-2.085-0.621,2.74-23.45,7.408-37.396c4.667-13.948,13.893-39.479,17.848-49.987c4.192-11.139,9.889-22.171,6.408-28.897
	c-3.817-7.37-9.113-5.632-10.504-5.069c-1.39,0.564,0.893,2.007-0.195,7.303c-1.09,5.296-18.923,48.564-18.923,48.564
	c-1.138-5.285-8.413-12.212-21.476-6.859c-13.064,5.354-18.567,19.026-22.427,27.399c-3.858,8.374-7.729,27.034-6.011,36.773
	c1.717,9.738,14.133,12.347,19.805,6.867c6.895-6.661,19.354-29.333,19.354-29.333s-5.267,19.562-3.837,27.352
	c1.43,7.791,13.208,11.137,19.791,3.804c7.931-8.835,21.401-40.817,26.101-48.081C306.219,90.185,302.018,85.472,302.018,85.472
	 M264.641,94.988c-2.886,8.711-4.533,9.769-9.634,19.129c-4.847,8.889-16.346,29.85-21.168,27.998
	c-4.544-1.741,2.845-28.73,8.632-41.568c5.786-12.838,15.993-25.993,20.493-23.771C267.431,78.984,267.799,85.46,264.641,94.988"/>
<path fill="#8B706D" d="M318.436,123.621c-2.607,6.58-9.362,16.074-12.808,19.341c-3.446,3.264-8.052,7.493-10.834,6.07
	c-2.783-1.422,0.456-13.769,4.433-23.834c3.977-10.066,8.788-20.498,10.254-24.128c2.627-6.51,4.695-13.712,3.18-19.095
	c-2.361-8.382-9.799-6.589-11.265-6.019c-1.465,0.572,1.287,1.334,0.124,6.664c-0.58,2.665-10.233,24.624-13.792,33.609
	c-3.559,8.984-7.613,21.715-6.133,29.545c1.251,6.613,10.275,9.986,17.242,6.426c6.904-2.372,16.126-15.489,16.126-15.489
	S322.092,114.392,318.436,123.621"/>
<path fill="#8B706D" d="M357.67,107.212c-2.527-0.425-2.558,0.887-1.412,1.999c1.146,1.114,3.455,5.361,4.319,11.131
	c0.864,5.771,1.674,14.284-3.095,28.289c-4.769,14.003-18.424,25.034-25.961,19.116c-6.913-5.428-5.396-19.412-4.418-26.603
	c2.039-10.876,4.252-16.823,8.969-29.2c5.048-13.248,11.911-23.443,9.551-31.826c-2.361-8.384-9.799-6.591-11.264-6.02
	c-1.466,0.571,1.287,1.334,0.124,6.664c-0.581,2.665-9.526,25.34-12.597,33.298c-2.812,7.295-4.749,12.494-6.646,21.16
	c-1.898,8.664-0.202,20.747,3.546,25.912c3.879,5.347,16.914,15.331,30.828,12.55c14.87-2.974,29.182-25.48,28.555-43.643
	C377.543,111.879,360.198,107.639,357.67,107.212"/>
<path fill="#8B706D" d="M321.323,76.903c-2.009-0.191-1.759-5.518,0.991-12.291c2.751-6.774,9.096-14.147,17.262-15.15
	c5.898-0.727,7.329,3.256,7.294,5.96c-0.034,2.702-0.943,5.578-2.7,6.552c-1.224,0.68-2.878-1.204-6.491,0.003
	c-3.877,1.296-9.072,5.7-11.619,10.731C323.283,78.19,321.323,76.903,321.323,76.903"/>
<path fill="#FFFFFF" d="M310.93,179.562c-10.28-4.695-40.617-15.786-91.335-17.76c-47.715-1.854-66.983,3.759-84.545,7.041
	c-26.507,4.954-50.229,16.484-54.688,21.312c-4.461,4.828-1.415,9.248,1.369,11.355c20.672-11.584,35.178-19.132,58.122-25.016
	c16.22-4.159,34.347-9.49,82.317-9.937c47.969-0.446,77.842,10.562,87.671,14.35c6.521,2.514,12.938,5.974,13.207,5.125
	C323.363,185.037,316.936,182.306,310.93,179.562"/>
<path fill="#FFFFFF" d="M156.64,79.533c1.1,0.449,6.402-6.293,0.093-10.74c-6.261-4.414-17.074-4.65-25.355,2.548
	c-8.28,7.198-7.534,17.741-5.301,26.723c2.232,8.983,7.186,16.875,4.297,28.467c-4.874,19.555-16.536,22.894-20.223,21.687
	c-3.689-1.206,11.109-19.492,14.376-22.628c2.513-2.412,12.916-12.704,25.076-21.732c14.417-10.7,24.463-12.963,24.708-13.975
	c0.26-1.076-14.265,3.324-26.517,12.117c-11.341,8.142-19.554,14.888-22.078,17.326c-3.857,3.722-13.01,11.576-17.667,19.195
	c-4.655,7.617-3.472,12.396,2.475,16.854c5.945,4.458,18.239,3.499,29.699-9.072c8.581-9.417,12.286-21.218,8.824-34.721
	c-2.075-8.096-6.342-16.151-6.755-22.108c-0.542-7.8,4.451-15.422,11.739-15.57C159.219,73.799,155.505,79.072,156.64,79.533"/>
<path fill="#FFFFFF" d="M113.986,80.042c1.054,0.555,7.191-6.802,1.372-12.097c-5.777-5.255-16.632-6.008-25.823,1.728
	c-9.191,7.734-9.694,19.646-8.518,29.867c1.178,10.22,6.151,19.916,1.864,32.846c-7.235,21.812-20.294,24.465-23.862,22.938
	c-3.569-1.526,12.846-20.9,16.508-24.284c2.816-2.604,15.042-14,28.357-23.623c15.783-11.406,21.248-12.79,21.615-13.917
	c0.391-1.201-7.168,0.897-23.334,12.075c-12.474,8.625-21.452,16.182-23.309,17.848c-4.389,3.937-15.204,12.508-20.797,20.88
	c-5.591,8.371-4.97,13.811,0.484,19.099c5.454,5.29,17.941,4.767,30.972-8.881c9.757-10.221,14.891-23.349,13.014-38.716
	c-1.124-9.216-4.46-18.483-4.166-25.214c0.384-8.811,6.316-17.172,13.667-17.01C117.264,73.698,112.899,79.47,113.986,80.042"/>
<path fill="#FFFFFF" d="M87.21,11.157c12.979,3.452,11.458,19.989,1.96,38.539c-10.678,18.461-40.664,89.07-42.854,97.798
	c-2.886,7.305-7.203,21.317-8.705,24.912c-1.561,3.588-5.781,4.644-9.471,3.569c-3.625-1.052-4.088-3.049-3.5-9.548
	c-0.279-6.566,13.235-45.75,21.613-65.174c8.376-19.425,30.062-65.669,32.982-71.992c2.401-5.197,1.578-11.405-2.717-12.094
	c-4.291-0.687-12.217,2.625-17.777,5.701c-5.56,3.075-11.488,8.262-15.896,12.492c-12.503,12-17.165,23.6-19.031,29.538
	c-2.29,8.163-1.618,13.13,0.199,16.432c1.234,2.242,2.778,5.905-2.078,5.112c-7.407-1.213-18.439-11.241-17.921-27.42
	c0.648-16.107,7.98-25.552,23.924-35.678C43.863,13.229,68.084,6.07,87.21,11.157"/>
<path fill="#FFFFFF" d="M216.048,97.528c-1.687-0.583,2.856-4.667,2.106-11.255c-0.58-5.104-3.217-12.351-14.24-10.734
	c-11.522,1.691-22.644,17.506-28.187,29.923c-5.542,12.417-10.849,32.241-7.519,33.577c3.33,1.336,8.156-6.749,12.525-15.523
	c5.135-10.315,9.971-18.737,13.417-23.251c6.967-9.126,10.006-9.336,13.628-8.482c3.621,0.852,5.861,1.872,4.749,6.168
	c-1.113,4.295-3.784,13.957-6.398,24.643c-2.615,10.685-3.582,18.138-1.787,18.906c1.794,0.77,7.27-8.816,11.509-16.399
	c4.239-7.584,14.137-27.05,14.137-27.05l-1.578,7.725c0,0-7.086,14.773-10.849,21.92c-3.761,7.147-9.475,16.951-13.812,16.75
	c-4.339-0.199-10.901-2.853-11.082-10.939c-0.171-7.643,0.791-13.01,1.588-18.165c0.801-5.154,1.606-9.503,2.204-11.269
	c0.598-1.766-1.981,1.439-5.327,7.638c-3.803,7.045-8.042,15.475-11.798,22.925c-3.56,7.057-6.449,10.494-10.218,11.797
	c-3.732,1.29-11.268,0.267-12.943-9.42c-1.938-11.195,0.518-22.723,6.375-36.793c5.855-14.068,16.049-26.633,29.046-29.546
	c12.995-2.915,22.214,1.091,26.366,7.521C223.356,86.551,218.112,98.241,216.048,97.528"/>
<path fill="#FFFFFF" d="M301.15,84.615c0,0-17.516,38.291-21.383,44.993c-3.866,6.703-9.21,15.51-12.462,14.542
	c-2.084-0.621,2.74-23.449,7.408-37.395c4.666-13.947,13.895-39.479,17.848-49.985c4.193-11.14,9.89-22.172,6.406-28.898
	c-3.812-7.37-9.11-5.634-10.5-5.07c-1.391,0.565,0.892,2.006-0.196,7.303c-1.088,5.296-18.922,48.564-18.922,48.564
	c-1.139-5.286-8.414-12.211-21.476-6.858c-13.064,5.355-18.569,19.026-22.427,27.399c-3.859,8.373-7.729,27.033-6.012,36.771
	c1.717,9.739,14.134,12.349,19.805,6.867c6.895-6.661,19.354-29.333,19.354-29.333s-5.266,19.561-3.836,27.352
	c1.429,7.791,13.209,11.137,19.79,3.805c7.932-8.835,21.401-40.818,26.102-48.08C305.35,89.328,301.15,84.615,301.15,84.615
	 M263.772,94.131c-2.886,8.711-4.533,9.771-9.636,19.129c-4.846,8.89-16.344,29.851-21.168,28
	c-4.542-1.743,2.847-28.732,8.633-41.57c5.786-12.837,15.993-25.993,20.494-23.769C266.562,78.127,266.93,84.604,263.772,94.131"/>
<path fill="#FFFFFF" d="M317.566,122.765c-2.605,6.58-9.361,16.074-12.807,19.34c-3.446,3.266-8.054,7.495-10.835,6.072
	c-2.782-1.424,0.455-13.77,4.433-23.837c3.978-10.064,8.788-20.496,10.253-24.126c2.629-6.51,4.695-13.713,3.18-19.095
	c-2.36-8.382-9.799-6.589-11.262-6.019c-1.466,0.572,1.286,1.334,0.124,6.664c-0.582,2.665-10.234,24.624-13.793,33.609
	c-3.559,8.984-7.614,21.716-6.134,29.544c1.252,6.613,10.275,9.986,17.243,6.428c6.902-2.373,16.124-15.49,16.124-15.49
	S321.223,113.536,317.566,122.765"/>
<path fill="#FFFFFF" d="M356.802,106.356c-2.527-0.425-2.559,0.886-1.411,1.999c1.145,1.114,3.453,5.361,4.317,11.132
	c0.863,5.772,1.674,14.284-3.095,28.287c-4.769,14.005-18.424,25.037-25.96,19.117c-6.913-5.427-5.396-19.409-4.418-26.603
	c2.04-10.875,4.25-16.823,8.968-29.199c5.049-13.248,11.911-23.443,9.551-31.826c-2.36-8.384-9.8-6.591-11.264-6.02
	c-1.465,0.571,1.287,1.333,0.124,6.664c-0.581,2.664-9.527,25.34-12.597,33.299c-2.813,7.296-4.749,12.494-6.646,21.157
	c-1.898,8.668-0.202,20.75,3.546,25.916c3.879,5.344,16.913,15.32,30.828,12.549c15.443-3.078,29.184-25.48,28.556-43.643
	C376.674,111.023,359.329,106.781,356.802,106.356"/>
<path fill="#FFFFFF" d="M320.453,76.047c-2.007-0.192-1.758-5.518,0.992-12.291c2.751-6.774,9.097-14.147,17.262-15.152
	c5.9-0.725,7.33,3.258,7.295,5.961c-0.036,2.702-0.945,5.578-2.699,6.553c-1.225,0.68-2.878-1.205-6.492,0.003
	c-3.879,1.295-9.073,5.7-11.62,10.731C322.415,77.333,320.453,76.047,320.453,76.047"/>
<path fill="#40404C" d="M310.229,178.916c-10.283-4.695-40.618-15.785-91.336-17.76c-47.715-1.854-66.983,3.76-84.546,7.042
	c-26.505,4.954-50.228,16.483-54.689,21.31c-4.458,4.829-1.413,9.248,1.371,11.355c20.672-11.583,35.178-19.131,58.122-25.014
	c16.22-4.161,34.347-9.491,82.316-9.938c47.97-0.445,77.842,10.562,87.672,14.351c6.52,2.514,12.936,5.973,13.205,5.124
	C322.66,184.392,316.234,181.659,310.229,178.916"/>
<path fill="#40404C" d="M155.913,78.945c1.099,0.448,6.401-6.294,0.092-10.741c-6.261-4.414-14.974-5.181-23.256,2.016
	c-8.28,7.199-7.534,17.743-5.302,26.725c2.232,8.98,7.758,17.883,4.869,29.477c-4.874,19.558-18.676,23.62-22.35,21.67
	c-3.411-1.809,10.567-19.954,13.835-23.09c2.512-2.412,12.916-12.705,25.076-21.733c14.416-10.7,24.461-12.963,24.707-13.976
	c0.261-1.075-14.265,3.325-26.516,12.118c-11.342,8.141-19.554,14.889-22.08,17.326c-3.855,3.722-13.008,11.575-17.666,19.193
	c-4.655,7.617-3.472,12.398,2.474,16.855c5.946,4.456,18.239,3.5,29.699-9.074c8.582-9.415,12.286-21.216,8.826-34.719
	c-2.076-8.096-6.344-16.151-6.756-22.108c-0.541-7.8,4.452-15.422,11.738-15.57C158.492,73.21,154.779,78.483,155.913,78.945"/>
<path fill="#40404C" d="M113.251,79.46c1.054,0.554,7.191-6.803,1.372-12.098c-5.777-5.255-15.527-5.487-24.718,2.249
	c-9.192,7.736-8.998,19.471-7.337,29.631c1.876,11.475,6.028,20.968,1.907,34.586c-6.648,21.982-22.291,23.817-26.19,20.914
	c-3.086-2.298,12.845-20.898,16.508-24.284c2.816-2.604,15.042-14,28.356-23.623c15.784-11.407,21.249-12.79,21.616-13.917
	c0.391-1.202-7.168,0.897-23.334,12.074c-12.474,8.624-21.452,16.183-23.309,17.849c-4.388,3.938-15.204,12.507-20.797,20.879
	c-5.593,8.373-4.97,13.812,0.484,19.102c5.454,5.288,17.941,4.766,30.972-8.884c9.756-10.219,14.891-23.347,13.014-38.715
	c-1.124-9.215-4.46-18.483-4.166-25.213c0.384-8.812,6.316-17.173,13.667-17.01C116.53,73.115,112.164,78.887,113.251,79.46"/>
<path fill="#40404C" d="M215.31,96.926c-1.688-0.583,2.855-4.665,2.106-11.255c-0.581-5.104-3.217-12.352-14.24-10.734
	c-11.522,1.692-22.644,17.508-28.187,29.922c-5.542,12.417-10.849,32.244-7.52,33.578c3.331,1.334,8.157-6.749,12.527-15.523
	c5.136-10.314,9.969-18.738,13.416-23.251c6.968-9.125,10.007-9.335,13.629-8.482c3.62,0.854,5.861,1.873,4.747,6.167
	c-1.112,4.296-3.782,13.958-6.397,24.644c-2.614,10.686-3.582,18.138-1.787,18.907s7.27-8.816,11.509-16.398
	c4.239-7.585,14.136-27.052,14.136-27.052l-1.575,7.725c0,0-7.088,14.773-10.849,21.92c-3.762,7.148-9.477,16.952-13.814,16.752
	c-4.339-0.199-10.901-2.852-11.081-10.94c-0.17-7.642,0.79-13.01,1.588-18.164c0.799-5.155,1.606-9.504,2.204-11.27
	c0.598-1.767-1.981,1.438-5.328,7.638c-3.803,7.045-8.042,15.475-11.799,22.925c-3.559,7.056-6.446,10.494-10.215,11.797
	c-3.733,1.29-11.269,0.267-12.946-9.42c-1.938-11.194,0.519-22.723,6.375-36.792c5.855-14.068,16.049-26.633,29.047-29.547
	c12.996-2.913,22.215,1.093,26.367,7.523C222.617,85.949,217.373,97.639,215.31,96.926"/>
<path fill="#40404C" d="M300.411,84.014c0,0-17.517,38.292-21.382,44.994c-3.868,6.702-9.21,15.509-12.463,14.541
	c-2.085-0.621,2.742-23.449,7.409-37.396c4.666-13.946,13.893-39.479,17.848-49.985c4.192-11.139,9.889-22.171,6.407-28.897
	c-3.813-7.372-9.111-5.634-10.502-5.07c-1.391,0.565,0.892,2.006-0.197,7.303c-1.088,5.296-18.921,48.564-18.921,48.564
	c-1.139-5.286-8.412-12.212-21.477-6.859c-13.064,5.354-18.567,19.027-22.426,27.401c-3.859,8.373-7.729,27.033-6.011,36.771
	c1.717,9.739,14.133,12.349,19.806,6.868c6.893-6.661,19.353-29.334,19.353-29.334s-5.267,19.562-3.837,27.353
	c1.431,7.79,13.209,11.136,19.791,3.804c7.933-8.835,21.403-40.818,26.103-48.08C304.612,88.727,300.411,84.014,300.411,84.014
	 M263.034,93.53c-2.888,8.71-4.534,9.77-9.636,19.128c-4.847,8.889-16.345,29.85-21.169,28c-4.543-1.742,2.847-28.731,8.634-41.57
	c5.785-12.836,15.992-25.993,20.492-23.769C265.823,77.525,266.191,84.002,263.034,93.53"/>
<path fill="#40404C" d="M316.828,122.163c-2.605,6.58-9.362,16.074-12.809,19.341c-3.445,3.265-8.051,7.494-10.834,6.071
	c-2.782-1.423,0.456-13.77,4.435-23.837c3.976-10.066,8.787-20.497,10.252-24.126c2.627-6.51,4.695-13.714,3.181-19.096
	c-2.361-8.382-9.799-6.589-11.263-6.019c-1.467,0.572,1.285,1.334,0.122,6.663c-0.579,2.665-10.232,24.624-13.793,33.61
	c-3.558,8.985-7.611,21.713-6.133,29.543c1.251,6.614,10.277,9.986,17.242,6.428c6.904-2.373,16.125-15.49,16.125-15.49
	S320.484,112.935,316.828,122.163"/>
<path fill="#40404C" d="M356.062,105.755c-2.526-0.425-2.557,0.887-1.412,1.999c1.146,1.113,3.454,5.361,4.318,11.131
	c0.864,5.772,1.676,14.284-3.095,28.287c-4.769,14.004-18.424,25.036-25.961,19.118c-6.912-5.428-5.395-19.411-4.416-26.603
	c2.038-10.876,4.251-16.824,8.967-29.2c5.049-13.248,11.912-23.444,9.551-31.827c-2.361-8.383-9.799-6.59-11.264-6.019
	c-1.464,0.57,1.287,1.333,0.123,6.663c-0.58,2.665-9.525,25.34-12.595,33.299c-2.812,7.296-4.749,12.494-6.647,21.157
	c-1.898,8.668,1.384,20.313,3.824,26.211c2.834,6.85,12.609,15.908,30.55,12.254c14.808-3.017,29.183-25.479,28.556-43.643
	C375.937,110.421,358.59,106.18,356.062,105.755"/>
<path fill="#40404C" d="M319.715,75.445c-2.008-0.192-1.759-5.518,0.992-12.291c2.75-6.774,9.096-14.147,17.261-15.152
	c5.9-0.726,7.329,3.258,7.294,5.962c-0.033,2.702-0.943,5.578-2.699,6.552c-1.225,0.68-2.878-1.206-6.491,0.002
	c-3.877,1.296-9.073,5.701-11.62,10.731C321.677,76.732,319.715,75.445,319.715,75.445"/>
<path fill="#40404C" d="M86.313,10.42c12.98,3.453,11.458,19.989,1.959,38.54c-10.677,18.46-40.663,89.07-42.854,97.799
	c-2.885,7.303-7.203,21.316-8.705,24.91c-1.561,3.588-5.78,4.644-9.471,3.57c-3.626-1.052-4.088-3.05-3.501-9.551
	c-0.279-6.565,13.235-45.747,21.614-65.172c8.376-19.423,30.063-65.669,32.983-71.992c2.399-5.197,1.578-11.405-2.718-12.093
	c-4.292-0.687-12.217,2.626-17.777,5.701c-5.56,3.076-11.488,8.261-15.896,12.492c-12.503,12-17.165,23.6-19.03,29.538
	c-2.292,8.162-1.619,13.129,0.198,16.432c1.234,2.243,2.778,5.906-2.077,5.112C13.63,84.492,2.599,74.463,3.117,58.285
	c0.648-16.106,7.98-25.552,23.924-35.678C42.966,12.492,67.188,5.333,86.313,10.42"/>
<path fill="#FFFFFF" d="M181.697,76.987c-7.15,4.988-11.775,13.708-15.276,21.446c-4.193,9.27-7.439,19.335-8.321,29.513
	c-0.057,0.667,0.968,0.653,1.036,0c1.049-10.003,4.021-19.865,8.103-29.035c3.411-7.664,7.778-16.357,14.782-21.371
	C182.354,77.303,182.039,76.75,181.697,76.987"/>
<path fill="#FFFFFF" d="M243.34,75.778c-6.877,4.799-11.349,12.943-14.678,20.428c-3.989,8.975-6.88,18.687-7.722,28.497
	c-0.058,0.667,0.967,0.653,1.035,0c1.011-9.636,3.627-19.146,7.505-28.018c3.236-7.402,7.455-15.533,14.185-20.352
	C243.997,76.096,243.683,75.541,243.34,75.778"/>
<path fill="#FFFFFF" d="M81.426,32.12c-16.708,31.438-30.358,64.728-41.92,98.373c-3.293,9.582-6.62,19.229-9.251,29.018
	c-0.146,0.541,0.663,0.758,0.836,0.229c2.766-8.414,5.255-16.916,8.073-25.315c2.851-8.498,5.853-16.947,9.004-25.338
	c6.29-16.753,13.167-33.287,20.62-49.556c4.185-9.138,8.596-18.166,12.99-27.205C81.891,32.092,81.55,31.886,81.426,32.12"/>
<path fill="#FFFFFF" d="M294.053,37.818c-10.429,23.997-19.271,48.835-26.12,74.088c-2.11,7.778-4.011,15.613-5.693,23.495
	c-0.137,0.647,0.858,0.924,0.994,0.273c5.586-26.588,13.811-52.49,23.464-77.864c2.521-6.631,5.172-13.215,7.768-19.82
	C294.558,37.757,294.154,37.584,294.053,37.818"/>
<path fill="#FFFFFF" d="M302.766,85.643c-3.688,8.007-7.554,15.93-10.911,24.085c-3.49,8.477-6.767,17.42-7.496,26.629
	c-0.046,0.564,0.839,0.562,0.882,0c0.698-9.22,4.021-18.172,7.463-26.673c3.266-8.057,7.106-15.856,10.476-23.868
	C303.275,85.583,302.871,85.412,302.766,85.643"/>
<path fill="#FFFFFF" d="M336.188,83.096c-7.02,15.752-14.69,31.666-17.993,48.71c-0.875,4.512-1.394,9.103-1.25,13.704
	c0.017,0.565,0.901,0.568,0.882,0c-0.378-11.144,2.907-22.213,6.618-32.602c3.595-10.066,8.078-19.765,12.155-29.639
	C336.697,83.035,336.291,82.863,336.188,83.096"/>
<path fill="#FFFFFF" d="M18.645,81.033c-5.624-4.154-8.268-10.235-9.523-15.58c-1.319-5.615-0.893-11.18,0.95-16.263
	c3.685-10.164,12.601-17.329,22.29-23.965c0.373-0.255-0.155-0.799-0.58-0.567C14.857,33.835,2.441,50.6,9.185,68.835
	c1.614,4.36,4.153,9.376,9.193,12.463C18.645,81.464,18.884,81.209,18.645,81.033"/>
<path fill="#FFFFFF" d="M358.735,110.141c4.339,6.819,5.181,15.831,3.972,23.66c-1.415,9.167-4.957,18.839-11.014,25.97
	c-0.281,0.329,0.198,0.812,0.479,0.479c6.289-7.429,9.977-17.58,11.25-27.149c0.637-4.779,0.383-9.576-0.681-14.277
	c-0.704-3.103-1.77-6.339-3.781-8.854C358.858,109.839,358.648,110.005,358.735,110.141"/>
<path fill="#FFFFFF" d="M92.644,71.173c-12.051,11.361-6.907,29.97-3.472,43.925c0.141,0.576,1.019,0.333,0.888-0.246
	c-3.216-14.081-8.551-31.495,2.837-43.427C93.056,71.258,92.812,71.014,92.644,71.173"/>
<path fill="#FFFFFF" d="M134.375,72.454c-4.619,3.413-5.757,9.329-5.456,14.776c0.45,8.092,3.389,15.979,5.698,23.675
	c0.173,0.574,1.077,0.327,0.901-0.249c-2.207-7.2-4.92-14.503-5.696-22.039c-0.582-5.633,0.156-12.03,4.771-15.884
	C134.747,72.604,134.54,72.333,134.375,72.454"/>
<path fill="#FFFFFF" d="M320.182,69.598c0.945-2.041,1.713-4.135,2.785-6.121c1.049-1.942,2.255-3.802,3.649-5.515
	c2.535-3.112,5.656-5.696,9.403-7.193c0.251-0.101,0.15-0.505-0.111-0.412c-3.799,1.372-7.02,4.044-9.547,7.151
	c-1.387,1.703-2.592,3.551-3.634,5.482c-1.097,2.03-2.191,4.276-2.74,6.525C319.96,69.627,320.128,69.712,320.182,69.598"/>
<path fill="#00AEEF" d="M306.647,60.831c0.419-0.204,1.563,0.018,1.782,0.735c0.218,0.719-0.324,1.568-1.034,1.645
	c-0.71,0.077-1.292-0.64-1.416-1.155C305.868,61.593,306.229,61.034,306.647,60.831"/>
<path fill="#00AEEF" d="M232.286,67.492c-0.077,0.464,0.037,0.97,0.264,1.38c0.177,0.322,0.51,0.538,0.859,0.613
	c1.051,0.227,2.112-0.984,1.778-2.032c-0.331-1.047-1.884-1.388-2.604-0.572C232.584,66.882,232.325,67.261,232.286,67.492"/>
<path fill="#00AEEF" d="M73.841,108.558c-0.079,0.465,0.037,0.971,0.264,1.38c0.175,0.322,0.507,0.538,0.858,0.614
	c1.051,0.226,2.112-0.986,1.779-2.032c-0.331-1.048-1.883-1.389-2.604-0.572C74.14,107.949,73.879,108.328,73.841,108.558"/>
<path fill="#00AEEF" d="M18.396,157.082c-0.37,0.473-0.459,1.153-0.227,1.536c0.224,0.368,0.775,0.516,1.241,0.422
	c0.466-0.095,0.85-0.381,1.148-0.708c0.185-0.202,0.347-0.427,0.406-0.679c0.136-0.587-0.414-1.22-1.099-1.266
	C19.181,156.342,18.766,156.613,18.396,157.082"/>
<path fill="#00AEEF" d="M44.604,79.719c-0.462,0.703-0.564,1.958,0.602,2.357c1.167,0.4,2.486-0.997,2.019-2.14
	c-0.208-0.511-0.71-0.88-1.062-0.905C45.81,79.006,45.074,79.003,44.604,79.719"/>
<path fill="#00AEEF" d="M251.331,98.085c0.884,0.901,1.936,0.049,2.152-0.688c0.219-0.738-0.603-1.444-1.364-1.222
	C251.359,96.397,250.45,97.184,251.331,98.085"/>
<path fill="#00AEEF" d="M16.818,170.167c0.657-0.001,1.228-0.501,1.521-1.089c0.359-0.716,0.231-1.819-0.544-2.027
	c-0.794-0.211-1.458,0.16-2,1.06S16.161,170.167,16.818,170.167"/>
<path fill="#00AEEF" d="M5.137,32.273c0.583-0.024,1.027-0.627,1.307-1.231c0.095-0.203,0.136-0.948-0.272-1.293
	c-0.408-0.345-0.95-0.255-1.375,0.053c-0.4,0.288-0.977,1.079-0.785,1.748C4.205,32.216,4.645,32.294,5.137,32.273"/>
<path fill="#00AEEF" d="M100.675,169.29c-0.201,0.614-0.096,1.249,0.496,1.549c0.593,0.301,1.728-0.179,2.108-0.74
	c0.381-0.564,0.302-1.241,0.088-1.704c-0.213-0.463-0.907-0.609-1.515-0.366C101.248,168.271,100.899,168.607,100.675,169.29"/>
<path fill="#00AEEF" d="M152.73,144.562c-0.484,0.535-0.55,1.389-0.066,1.921c0.484,0.533,1.506,0.585,1.984,0.045
	c0.421-0.477,0.308-1.221-0.113-1.696c-0.329-0.371-0.868-0.62-1.376-0.506c-0.507,0.113-0.881,0.672-0.654,1.104"/>
<path fill="#00AEEF" d="M241.781,148.929c-0.482,0.535-0.549,1.389-0.065,1.922c0.484,0.531,1.508,0.583,1.985,0.044
	c0.419-0.477,0.307-1.222-0.115-1.697c-0.328-0.372-0.867-0.618-1.376-0.505c-0.506,0.114-0.879,0.673-0.652,1.104"/>
<path fill="#00AEEF" d="M382.106,127.145c-0.36,0.513-0.573,1.398-0.403,2.133c0.197,0.858,0.882,1.051,1.432,0.944
	c0.475-0.093,0.962-0.328,1.296-0.891c0.332-0.563,0.453-1.523,0.166-2.162c-0.259-0.576-0.606-0.802-1.164-0.812
	C382.875,126.35,382.465,126.633,382.106,127.145"/>
<path fill="#00AEEF" d="M337.197,188.48c-0.281,0.575-0.042,1.513,0.566,1.802c0.412,0.195,1.242,0.115,1.559-0.213
	c0.316-0.327,0.358-0.676,0.517-1.103c0.063-0.173,0.125-0.704-0.407-1.07C338.9,187.53,337.479,187.905,337.197,188.48"/>
<path fill="#00AEEF" d="M352.508,128.145c-0.317,0.308-0.446,0.687-0.467,1.161c-0.021,0.474,0.296,1.01,0.656,1.133
	c0.394,0.135,0.825,0.063,1.221-0.055c0.396-0.118,0.766-0.463,0.81-0.915c0.07-0.765-0.962-1.374-1.199-1.481
	C353.29,127.88,352.828,127.838,352.508,128.145"/>
<path fill="#00AEEF" d="M328.677,189.913c-0.116,0.436-0.068,0.744,0.05,1.049c0.119,0.305,0.437,0.438,0.78,0.444
	c0.598,0.011,1.199-0.358,1.404-0.918c0.203-0.562,0.046-1.39-0.78-1.542C329.306,188.794,328.794,189.476,328.677,189.913"/>
<path fill="#00AEEF" d="M26.994,66.859c0.05,0.565,0.432,1.069,0.903,1.19c0.284,0.071,0.585,0.014,0.855-0.118
	c0.74-0.36,1.247-1.409,0.962-2.291c-0.285-0.88-1.328-1.156-1.932-0.786C27.179,65.225,26.944,66.293,26.994,66.859"/>
<path fill="#00AEEF" d="M117.562,189.781c-0.451,0.433-0.798,1.174-0.378,1.861c0.316,0.518,0.905,0.573,1.714,0.355
	c0.517-0.138,0.895-0.627,1.162-1.087c0.36-0.618,0.584-1.472,0.027-1.751C119.291,188.76,118.012,189.347,117.562,189.781"/>
<path fill="#00AEEF" d="M126.869,164.867c-0.283,0.264-0.712,0.972-0.287,1.545c0.431,0.582,1.119,0.576,1.655,0.438
	c0.463-0.119,0.838-0.457,1.077-0.859c0.322-0.539,0.362-1.116-0.102-1.558c-0.301-0.285-0.846-0.35-1.247-0.213
	C127.566,164.357,127.153,164.603,126.869,164.867"/>
<path fill="#00AEEF" d="M107.068,51.074c-0.284,0.264-0.712,0.974-0.288,1.545c0.43,0.582,1.119,0.576,1.655,0.438
	c0.463-0.121,0.838-0.457,1.078-0.858c0.322-0.541,0.361-1.12-0.102-1.558c-0.301-0.287-0.845-0.35-1.247-0.214
	C107.764,50.564,107.351,50.811,107.068,51.074"/>
<path fill="#00AEEF" d="M326.779,179.823c0.426,0.303,0.581,0.628,0.524,0.917c-0.142,0.745-1.084,1.254-1.619,0.995
	c-0.535-0.258-0.535-0.863-0.282-1.347C325.652,179.904,326.352,179.521,326.779,179.823"/>
<path fill="#00AEEF" d="M309.459,185.46c-7.056-2.333-18.434-4.76-28.016-6.259c-4.403-0.688-16.058-2.099-27.812-2.779
	c-10.661-0.617-21.374-0.555-27.463-0.278c-8.173,0.373-23.454,0.83-23.482,2.906c-0.031,2.139,3.342,1.761,13.748,0.937
	c5.064-0.402,14.12-1.138,26.88-1.207c9.952-0.056,16.575,0.074,25.909,0.935c24.908,2.299,32.385,4.15,40.165,5.992
	C309.679,185.774,309.72,185.546,309.459,185.46"/>
<path fill="#00AEEF" d="M293.108,178.339c-10.562-3.225-27.867-6.272-42.53-7.567c-6.721-0.641-24.572-1.561-42.471-0.629
	c-16.237,0.779-32.335,3.128-41.35,4.931c-12.163,2.263-34.586,7.337-33.908,9.982c0.668,2.682,5.397,1.054,20.482-2.762
	c7.346-1.821,20.556-5.078,39.665-7.485c14.9-1.824,24.936-2.566,39.124-2.427c37.888,0.772,49.263,3.904,60.945,6.27
	C293.499,178.747,293.501,178.456,293.108,178.339"/>
<path fill="#00AEEF" d="M242.035,160.904c-6.669-1.64-17.346-3.131-26.305-3.914c-4.118-0.36-14.988-0.955-25.909-0.913
	c-9.906,0.039-19.82,0.667-25.439,1.235c-7.542,0.761-21.661,1.979-21.566,3.778c0.1,1.853,3.199,1.347,12.782,0.072
	c4.666-0.621,13.005-1.743,24.812-2.49c9.209-0.582,15.349-0.826,24.039-0.582c23.195,0.652,29.997,1.838,37.308,3.016
	C242.028,161.148,242.283,160.965,242.035,160.904"/>
<path fill="#00AEEF" d="M42.491,97.819c-1.375,2.543-2.8,6.058-5.702,12.908c-5.15,12.156-9.703,25.851-11.324,31.14
	c-0.881,2.871-1.734,7.223-3.341,6.879c-1.284-0.273-1.006-2.086-0.682-3.357c0.517-2.026,1.312-4.378,1.931-6.368
	c0.817-2.622,3.074-9.145,6.246-16.942c3.36-8.255,6.874-16.686,11.96-24.843C42.822,95.24,43.755,95.477,42.491,97.819"/>
<path fill="#00AEEF" d="M290.504,76.339c-1.084,2.4-2.207,5.66-4.493,12.027c-4.059,11.302-7.638,23.881-8.913,28.722
	c-0.692,2.627-1.361,6.552-2.636,6.447c-1.016-0.084-0.799-1.708-0.544-2.865c0.404-1.843,1.03-4.005,1.518-5.827
	c0.642-2.402,2.42-8.405,4.917-15.638c2.646-7.657,5.415-15.487,9.43-23.27C290.761,74.035,291.501,74.129,290.504,76.339"/>
<path fill="#00AEEF" d="M192.701,64.941c0.16,1.694,3.312,1.429,6.983,1.583c3.835,0.163,11.916,0.766,17.026,5.911
	c4.684,4.716,5.172,10.349,6.093,9.976c0.651-0.262-1.236-6.04-3.598-9.323c-3.836-5.34-7.915-7.139-11.104-8.348
	C204.912,63.528,192.346,61.212,192.701,64.941"/>
<path fill="#00AEEF" d="M85.203,166.656c-3.704,2.582-7.776,4.368-12.291,4.984c-0.054,0.007-0.106,0.013-0.16,0.021
	c-4.309,0.552-8.721-0.299-12.685-2.017c-1.817-0.788-3.755-1.869-5.013-3.437c-0.125-0.156-0.423-0.515-0.275-0.729
	c0.173-0.252,0.5-0.014,0.651,0.138c1.31,1.309,2.946,2.171,4.676,2.776c1.873,0.655,3.803,1.163,5.777,1.395
	c4.614,0.541,9.583-0.5,13.541-2.883c3.28-1.976,5.633-3.981,7.374-5.532c1.418-1.265,2.323-1.59,3.143-0.844
	c1.533,1.392-1.776,3.815-2.675,4.585C86.771,165.537,86.043,166.071,85.203,166.656"/>
<path fill="#00AEEF" d="M181.558,141.689c-1.55,2.513-3.569,4.682-6.21,6.314l-0.092,0.056c-2.534,1.539-5.547,2.311-8.535,2.465
	c-1.372,0.07-2.905,0.008-4.156-0.522c-0.125-0.052-0.419-0.172-0.39-0.334c0.033-0.192,0.311-0.15,0.45-0.108
	c1.207,0.37,2.487,0.394,3.748,0.245c1.366-0.161,2.726-0.423,4.028-0.853c3.047-1.004,5.846-3.006,7.615-5.48
	c1.465-2.05,2.342-3.854,2.971-5.228c0.513-1.119,0.98-1.56,1.716-1.37c1.372,0.352,0.022,2.664-0.313,3.355
	C182.207,140.609,181.909,141.119,181.558,141.689"/>
<path fill="#00AEEF" d="M276.771,149.688c-2.018,1.408-4.318,2.417-6.976,2.836c-0.031,0.002-0.062,0.008-0.094,0.012
	c-2.54,0.382-5.251,0.045-7.76-0.748c-1.149-0.365-2.396-0.877-3.271-1.651c-0.088-0.078-0.295-0.257-0.223-0.37
	c0.084-0.132,0.298-0.017,0.401,0.057c0.886,0.643,1.935,1.049,3.018,1.319c1.174,0.296,2.371,0.513,3.571,0.587
	c2.807,0.175,5.703-0.472,7.89-1.782c1.812-1.088,3.064-2.17,3.985-3.004c0.752-0.682,1.269-0.868,1.817-0.505
	c1.029,0.681-0.766,1.998-1.242,2.413C277.624,149.079,277.229,149.371,276.771,149.688"/>
<path fill="#00AEEF" d="M135.181,62.646c-3.555,1.882-6.606,4.361-8.877,7.644c-0.026,0.039-0.052,0.077-0.079,0.116
	c-2.137,3.147-3.169,6.922-3.317,10.685c-0.069,1.725,0.023,3.28,0.357,5.268c0.029,0.173,0.205,0.551,0.438,0.542
	c0.277-0.012,0.211-0.36,0.196-0.547c-0.138-1.785-0.139-3.218,0.044-4.804c0.197-1.716,0.538-3.422,1.123-5.051
	c1.363-3.812,4.158-7.281,7.65-9.439c2.894-1.787,5.453-2.84,7.399-3.591c1.588-0.613,2.206-1.192,1.917-2.124
	c-0.535-1.739-3.808-0.104-4.786,0.297C136.708,61.861,135.987,62.219,135.181,62.646"/>
<path fill="#00AEEF" d="M324.344,48.987c-2.539,2.362-4.703,5.321-6.288,9.078c-0.019,0.044-0.036,0.088-0.056,0.132
	c-1.491,3.598-2.172,7.772-2.215,11.854c-0.019,1.872,0.653,2.131,0.759,0.401c0.112-1.875,0.329-3.749,0.723-5.565
	c0.92-4.244,2.882-8.252,5.372-10.905c2.062-2.198,3.895-3.571,5.29-4.564c1.139-0.806,1.575-1.49,1.351-2.47
	c-0.418-1.831-2.757,0.237-3.458,0.76C325.435,47.998,324.921,48.451,324.344,48.987"/>
<path fill="#00AEEF" d="M353.932,144.381c-0.716,4.457-2.262,8.626-4.954,12.303c-0.031,0.044-0.062,0.086-0.094,0.129
	c-2.598,3.485-6.274,6.068-10.263,7.725c-1.829,0.759-3.953,1.402-5.954,1.219c-0.198-0.02-0.664-0.056-0.717-0.31
	c-0.061-0.299,0.338-0.368,0.552-0.372c1.852-0.032,3.932-0.585,5.568-1.409c1.771-0.891,3.479-1.927,5.016-3.186
	c3.595-2.943,6.299-7.24,7.333-11.743c0.857-3.731,1.049-6.818,1.143-9.147c0.075-1.898,0.148-2.8,1.253-2.872
	c2.065-0.136,1.512,3.928,1.441,5.108C354.217,142.476,354.094,143.371,353.932,144.381"/>
<path fill="#00AEEF" d="M102.151,32.851c0.697-4.013,0.604-8.025-0.614-11.954c-0.014-0.046-0.029-0.091-0.044-0.137
	c-1.192-3.738-3.572-7.02-6.487-9.605c-1.338-1.185-2.963-2.357-4.723-2.788c-0.177-0.044-0.585-0.148-0.703,0.052
	c-0.14,0.238,0.18,0.414,0.363,0.481c1.57,0.571,2.899,1.579,4.053,2.762c1.251,1.281,2.403,2.667,3.345,4.193
	c2.203,3.565,3.248,8.027,2.809,12.173c-0.365,3.435-1.106,6.125-1.711,8.14c-0.494,1.643-0.412,2.505,0.51,2.893
	c1.722,0.723,2.443-2.908,2.729-3.936C101.835,34.56,101.993,33.761,102.151,32.851"/>
<path fill="#00AEEF" d="M67.374,21.731c-3.895,1.742-9.146,5.199-13.15,8.375c-1.84,1.46-6.393,5.522-10.416,9.982
	c-3.647,4.045-6.789,8.439-8.389,11.054c-2.146,3.512-6.341,9.962-4.754,10.983c1.636,1.049,2.35-0.507,4.812-5.148
	c1.198-2.26,3.329-6.307,7.072-11.539c2.919-4.083,4.992-6.719,8.432-10.104c9.18-9.033,12.729-11.097,16.463-13.374
	C67.581,21.876,67.518,21.667,67.374,21.731"/>
<path fill="#00AEEF" d="M73.103,4.523c-5.636-0.304-13.692,0.409-20.055,1.503c-2.924,0.502-10.343,2.203-17.251,4.588
	c-6.269,2.162-12.036,4.95-15.128,6.752c-4.15,2.42-12.091,6.731-10.501,8.61c1.637,1.936,3.178,0.736,8.189-2.662
	c2.438-1.656,6.787-4.627,13.661-7.943c5.361-2.589,9.06-4.162,14.793-5.766c15.303-4.28,20.636-4.486,26.286-4.811
	C73.305,4.782,73.312,4.534,73.103,4.523"/>
<path fill="#00AEEF" d="M350.687,176.891c3.08-0.759,7.899-2.06,12.704-5.237c4.351-2.876,9.964-7.642,14.279-14.531
	c4.645-7.418,6.237-13.978,6.469-15.998c0.447-3.911-2.271-5.069-3.319-0.257c-0.476,2.185-1.414,7.932-4.74,14.291
	c-3.187,6.095-6.88,10.19-10.423,13.032c-8.592,6.896-13.581,7.183-15.463,7.852C348.598,176.611,348.816,177.351,350.687,176.891"
	/>
</svg>
