<svg xmlns="http://www.w3.org/2000/svg" viewBox="0 0 10.03 24.94"><defs><style>.cls-1{fill:#3f404c;}</style></defs><title>Recurso 1</title><g id="Capa_2" data-name="Capa 2"><g id="Layer_1" data-name="Layer 1"><path class="cls-1" d="M5,24.94a.46.46,0,0,1-.46-.46v-7A.46.46,0,0,1,5,17a.47.47,0,0,1,.46.46v7A.47.47,0,0,1,5,24.94Z"/><path class="cls-1" d="M8.36,24.87A1.07,1.07,0,0,1,7.29,23.8v-.3A2.28,2.28,0,0,0,5,21.22a.46.46,0,0,1-.46-.46A.45.45,0,0,1,5,20.3a3.19,3.19,0,0,1,3.19,3.2v.3a.15.15,0,0,0,.3,0v-.61a.46.46,0,0,1,.92,0v.61A1.07,1.07,0,0,1,8.36,24.87Z"/><path class="cls-1" d="M1.67,24.87A1.07,1.07,0,0,1,.6,23.8v-.61a.47.47,0,0,1,.46-.46.46.46,0,0,1,.46.46v.61a.15.15,0,0,0,.3,0v-.3A3.2,3.2,0,0,1,5,20.3a.46.46,0,0,1,.46.46.47.47,0,0,1-.46.46A2.28,2.28,0,0,0,2.74,23.5v.3A1.07,1.07,0,0,1,1.67,24.87Z"/><path class="cls-1" d="M7.53,18h-5a1.32,1.32,0,0,1-1.32-1.2L.93,13.93a3,3,0,0,1,.6-2.09,1.86,1.86,0,0,0,.37-1,1.84,1.84,0,0,0-.1-.69L.32,5.8A6.12,6.12,0,0,1,0,3.86,1.33,1.33,0,0,1,.82,2.63l2.29-.94a.4.4,0,0,0,.25-.37A1.32,1.32,0,0,1,4.68,0h.68A1.33,1.33,0,0,1,6.68,1.32a.39.39,0,0,0,.25.37l2.29.94A1.33,1.33,0,0,1,10,3.86,5.85,5.85,0,0,1,9.71,5.8L8.23,10.14a2,2,0,0,0-.09.69,1.85,1.85,0,0,0,.36,1,3,3,0,0,1,.6,2.09l-.26,2.82A1.31,1.31,0,0,1,7.53,18ZM4.68.92a.4.4,0,0,0-.4.4,1.3,1.3,0,0,1-.82,1.22l-2.29.94a.42.42,0,0,0-.25.38A5.08,5.08,0,0,0,1.19,5.5L2.67,9.85a2.76,2.76,0,0,1,.14,1,2.68,2.68,0,0,1-.55,1.51,2.12,2.12,0,0,0-.41,1.46l.25,2.82a.41.41,0,0,0,.41.36h5a.4.4,0,0,0,.4-.36l.26-2.82a2.13,2.13,0,0,0-.42-1.46,2.76,2.76,0,0,1-.41-2.54L8.84,5.5a5.09,5.09,0,0,0,.28-1.64.42.42,0,0,0-.25-.38L6.58,2.54a1.3,1.3,0,0,1-.82-1.22.4.4,0,0,0-.41-.4Z"/></g></g></svg>