<svg xmlns="http://www.w3.org/2000/svg" viewBox="0 0 18.78 18.78"><defs><style>.cls-1{fill:#3f404c;}</style></defs><title>Recurso 2</title><g id="Capa_2" data-name="Capa 2"><g id="Layer_1" data-name="Layer 1"><path class="cls-1" d="M12.69,11.7a.37.37,0,0,0-.37.37V14.6a1.83,1.83,0,0,1-1.83,1.83h-4a.38.38,0,0,0-.37.37v.73l-.87-.88A.38.38,0,0,0,5,16.43H2.57A1.84,1.84,0,0,1,.73,14.6V9A1.84,1.84,0,0,1,2.57,7.12h3.7a.37.37,0,0,0,0-.74H2.57A2.57,2.57,0,0,0,0,9V14.6a2.58,2.58,0,0,0,2.57,2.57H4.76l1.51,1.5a.36.36,0,0,0,.26.11.35.35,0,0,0,.14,0,.37.37,0,0,0,.23-.34V17.17h3.59a2.58,2.58,0,0,0,2.57-2.57V12.07A.37.37,0,0,0,12.69,11.7Z"/><path class="cls-1" d="M13.45,0h-.93a5.33,5.33,0,0,0,0,10.66h.93a5.55,5.55,0,0,0,1.35-.17l1.37,1.37a.38.38,0,0,0,.26.11.32.32,0,0,0,.14,0,.37.37,0,0,0,.23-.34V9.48a5.45,5.45,0,0,0,1.4-1.73A5.33,5.33,0,0,0,13.45,0Zm2.76,9a.35.35,0,0,0-.15.29v1.41l-.89-.89a.38.38,0,0,0-.26-.11l-.11,0a4.74,4.74,0,0,1-1.35.2h-.93a4.6,4.6,0,0,1,0-9.2h.93a4.61,4.61,0,0,1,4.6,4.6A4.57,4.57,0,0,1,16.21,9Z"/><path class="cls-1" d="M14.64,4A1.58,1.58,0,0,0,13.2,2.57a1.57,1.57,0,0,0-1.67,1.55.37.37,0,1,0,.74,0,.81.81,0,0,1,.88-.81.8.8,0,0,1,.75.75.82.82,0,0,1-.63.86.69.69,0,0,0-.55.68v.88a.37.37,0,1,0,.73,0V5.63A1.55,1.55,0,0,0,14.64,4Z"/><path class="cls-1" d="M13.35,7.68a.38.38,0,0,0-.26-.11.36.36,0,0,0-.26.11.34.34,0,0,0-.11.25.35.35,0,0,0,.11.26.36.36,0,0,0,.26.11.36.36,0,0,0,.36-.37A.37.37,0,0,0,13.35,7.68Z"/><path class="cls-1" d="M10.09,11.37H2.35a.37.37,0,1,0,0,.73h7.74a.37.37,0,0,0,0-.73Z"/><path class="cls-1" d="M10.35,13.53a.38.38,0,0,0-.26-.11.37.37,0,0,0,0,.74.38.38,0,0,0,.26-.11.39.39,0,0,0,0-.52Z"/><path class="cls-1" d="M8.64,13.42H2.35a.37.37,0,1,0,0,.74H8.64a.37.37,0,0,0,0-.74Z"/><path class="cls-1" d="M7.7,9.32H2.35a.37.37,0,1,0,0,.73H7.7a.37.37,0,1,0,0-.73Z"/></g></g></svg>